<svg width="616" height="101" viewBox="0 0 616 101" fill="none" xmlns="http://www.w3.org/2000/svg">
<path d="M304.938 2.04747L280.609 97.843H302.564L306.118 81.907H335.978L339.569 97.843H361.523L337.377 2.04747H304.925H304.938ZM310.397 62.9207L319.167 23.9276H323.085L331.786 62.9207H310.397Z" fill="white"/>
<path d="M20.5235 2.32952L14.4866 56.7661C14.4866 56.9463 14.4145 57.1986 14.4145 57.3787C13.9804 61.6059 13.3057 65.4368 12.0406 71.021C10.4981 77.7938 6.69053 79.9436 0.0390625 79.9436V100.287C12.6189 100.287 26.9222 100.287 31.8386 78.3343C33.381 71.3813 34.3209 65.1966 34.8872 59.6725V59.6003H34.9593L39.1285 21.5318H52.3834V97.849H73.7239V2.01756H20.5118V2.34161L20.5235 2.32952Z" fill="white"/>
<path d="M111.369 58.6218H141.193V39.9717H111.333V21.5621H143.808V2.04747H89.981V97.843H143.844V78.3162H111.369V58.6218Z" fill="white"/>
<path d="M185.426 0.417969C164.76 0.417969 153.59 12.2707 153.59 31.5331V68.0644C153.59 87.2909 164.724 99.1795 185.426 99.1795C206.127 99.1795 216.647 87.3267 216.647 68.0644V64.1613H196.813L196.741 68.0644C196.741 76.3026 193.439 79.7733 185.353 79.7733C177.268 79.7733 173.713 76.3026 173.713 68.0644V31.5331C173.713 23.2949 177.268 19.8242 185.353 19.8242C193.439 19.8242 196.741 23.2949 196.741 31.5331V34.2593H216.647V31.5331C216.647 12.3788 206.079 0.417969 185.426 0.417969Z" fill="white"/>
<path d="M285.562 1.94671H223.794V21.4614H244.062V97.7781H265.415V21.4614H285.562V1.94671Z" fill="white"/>
<path fill-rule="evenodd" clip-rule="evenodd" d="M597.712 2.11202H361.535L382.393 84.7936C384.332 92.4672 391.248 97.8475 399.192 97.8475H597.724C607.292 97.8475 615.039 90.1255 615.039 80.5907V19.3809C615.039 9.84567 607.292 2.12411 597.724 2.12411L597.712 2.11202ZM448.775 73.1932H441.33V41.4295L422.52 73.1811H422.194L415.805 73.1932V26.7663H423.254V58.7101L442.185 26.7663H448.775V73.1932ZM487.153 34.0437H469.286V73.1932H461.765V26.7663H487.153V34.0437ZM512.085 57.5933H504.351V73.1932H496.914V26.7663H512.097C521.835 26.7663 527.413 32.4348 527.413 42.3179C527.413 52.2013 521.835 57.5816 512.097 57.5816L512.085 57.5933ZM551.068 73.1932H536.236V26.7663H543.668V42.3662H551.068C560.805 42.3662 566.383 47.9262 566.383 57.6417C566.383 67.3567 560.805 73.1932 551.068 73.1932ZM580.095 73.1932H572.659V26.7663H580.095V73.1932ZM550.838 49.7927H543.66V65.6566H550.838C556.118 65.6566 558.915 62.8945 558.915 57.6707C558.915 55.0408 558.238 53.0953 556.827 51.7503C555.457 50.4296 553.502 49.7927 550.838 49.7927ZM504.338 34.3162H511.859C517.135 34.3162 519.932 37.0783 519.932 42.3021C519.932 44.9441 519.243 46.8775 517.849 48.2225C516.474 49.5437 514.519 50.1801 511.859 50.1801H504.338V34.3162Z" fill="#0069FF"/>
<path d="M448.775 73.1932H441.33V41.4295L422.52 73.1811H422.194L415.805 73.1932V26.7663H423.254V58.7101L442.185 26.7663H448.775V73.1932Z" fill="white"/>
<path d="M487.153 34.0437H469.286V73.1932H461.765V26.7663H487.153V34.0437Z" fill="white"/>
<path fill-rule="evenodd" clip-rule="evenodd" d="M512.085 57.5933H504.351V73.1932H496.914V26.7663H512.097C521.835 26.7663 527.413 32.4348 527.413 42.3179C527.413 52.2013 521.835 57.5816 512.097 57.5816L512.085 57.5933ZM511.859 34.3162H504.338V50.1801H511.859C514.519 50.1801 516.474 49.5437 517.849 48.2225C519.243 46.8775 519.932 44.9441 519.932 42.3021C519.932 37.0783 517.135 34.3162 511.859 34.3162Z" fill="white"/>
<path fill-rule="evenodd" clip-rule="evenodd" d="M551.068 73.1932H536.236V26.7663H543.668V42.3662H551.068C560.805 42.3662 566.383 47.9262 566.383 57.6417C566.383 67.3567 560.805 73.1932 551.068 73.1932ZM543.66 49.7927H550.838C553.502 49.7927 555.457 50.4296 556.827 51.7503C558.238 53.0953 558.915 55.0408 558.915 57.6707C558.915 62.8945 556.118 65.6566 550.838 65.6566H543.66V49.7927Z" fill="white"/>
<path d="M580.095 73.1932H572.659V26.7663H580.095V73.1932Z" fill="white"/>
</svg>
